<?xml version="1.0" encoding="UTF-8"?><svg id="uuid-1279446a-d086-4e0d-954f-66e8cd91a299" xmlns="http://www.w3.org/2000/svg" viewBox="0 0 620.082646636064055 406.866116649125615"><defs><style>.uuid-3d28800c-dc82-47db-aeab-c55eb0be5377{fill:#73eea2;stroke:#231f20;stroke-miterlimit:10;stroke-width:20px;}</style></defs><path class="uuid-3d28800c-dc82-47db-aeab-c55eb0be5377" d="m222.193480289252875,224.041477809508251c-18.955737273910017,17.781842126782067-35.840641652534941,37.330173517407275-39.011853981481181,65.01607569521002-.736778892284747,6.432433978666268-1.007314003159991,12.946519183496093-1.048094262785526,19.425858287442679-.308470847133322,48.941288925364461-33.972310185401511,85.082985509346145-81.784326416698605,87.668593533001513-46.099587377529133,2.493014356005006-84.652493909964505-31.284767655255564-89.87539580406883-78.743757958300193-5.177890987816681-47.049776012965594,32.765058535267599-93.013222288697762,80.423639174757227-92.51661744780904,38.361365968851715.399776482797279,67.703115599957528-13.584818532678582,92.138926715442722-41.469699594049416,7.36480673195183-8.404335107742554,15.864054096727159-15.871950156481944,22.742157564617628-24.633357042571333,14.17748662286067-18.059461693575031,18.962967206979556-38.987073113049519,18.677894926027875-61.878006987003573-.546295008529341-43.877142570138858,27.690152562325238-77.302350614219904,70.811462805032534-85.444842233674535,51.027229456120949-9.635335139278141,101.573496613577845,29.455664783769862,100.559486453546015,81.389565333521205-1.228615731368336,62.920933306731058,39.460571638986949,95.006933571402442,85.09489013503844,124.115381394567521,13.22172761220645,8.43359106249045,29.821129542291601,7.092945138351752,45.446563247947779,7.340661146853563,39.134923774126946.620295477852778,72.456431599623102,26.882595694362863,80.974982612999156,64.392074994088034,8.078869985793062,35.573328167087311-1.623403830872121,66.114492805547343-30.327378853595292,89.020946001717675-26.595823138377455,21.22423481905571-56.903962372311071,24.650067695289181-87.682223019823141,11.016661798599671-33.412280647415173-14.800138343631261-51.98893332991247-41.916404940869143-51.15501739325191-78.51930215723678.762973223594599-33.493093175541617-11.578171625511459-59.416578588724406-35.568631520534836-81.236419724998086-7.203956256591482-6.552059808852391-13.79800748447451-13.769393732324716-20.850960569785457-20.493687801427768-30.593864028112876-29.168116149096932-86.086648441623765-36.191013605808621-123.013536218640184-15.340898512945387-13.950699035723119,7.877085302674459-25.337852911980008,19.030784833600592-36.552585594744414,30.890771275014231Z"/></svg>